<svg width="50" height="50" viewBox="0 0 50 50" fill="none" xmlns="http://www.w3.org/2000/svg">
<path d="M41.75 43.7503H8.25C7.14543 43.7503 6.25 42.8549 6.25 41.7503V18.667C6.25 17.5624 7.14543 16.667 8.25 16.667H41.75C42.8546 16.667 43.75 17.5624 43.75 18.667V41.7503C43.75 42.8549 42.8546 43.7503 41.75 43.7503Z" stroke="black"/>
<path d="M14.583 16.6663V8.93301C14.583 8.60164 14.8516 8.33301 15.183 8.33301H34.8163C35.1477 8.33301 35.4163 8.60164 35.4163 8.93301V16.6663" stroke="black"/>
<path d="M20.833 8.33301V16.6663" stroke="black"/>
<path d="M25 8.33301V16.6663" stroke="black"/>
<path d="M34.3753 31.2503C33.8 31.2503 33.3337 30.784 33.3337 30.2087C33.3337 29.6334 33.8 29.167 34.3753 29.167C34.9506 29.167 35.417 29.6334 35.417 30.2087C35.417 30.784 34.9506 31.2503 34.3753 31.2503Z" fill="black" stroke="black" stroke-linecap="round" stroke-linejoin="round"/>
</svg>
