<svg width="50" height="50" viewBox="0 0 50 50" fill="none" xmlns="http://www.w3.org/2000/svg">
<path d="M43.2008 11.5356V15.7023H39.0342H43.2008" stroke="black" stroke-linecap="round" stroke-linejoin="round"/>
<path d="M15.8057 22.3517C15.8057 20.6621 17.1765 19.2913 18.8661 19.2913C20.5557 19.2913 21.9265 20.6621 21.9265 22.3517C21.9265 26.1767 15.8077 26.1767 15.8077 30.7058H21.9265" stroke="black" stroke-linecap="round" stroke-linejoin="round"/>
<path d="M33.1125 25.0625L27.8792 25.0062C27.5833 25.002 27.3438 24.7625 27.3438 24.4645V19.2937" stroke="black" stroke-linecap="round" stroke-linejoin="round"/>
<path d="M33.1032 19.4172V30.7089" stroke="black" stroke-linecap="round" stroke-linejoin="round"/>
<path d="M42.2921 15.7038C38.9525 9.65799 32.4629 5.55591 25.0004 5.55591C14.2608 5.55591 5.55664 14.2622 5.55664 24.9997C5.55664 35.7372 14.2608 44.4434 25.0004 44.4434C35.74 44.4434 44.4441 35.7372 44.4441 24.9997" stroke="black" stroke-linecap="round" stroke-linejoin="round"/>
</svg>
